<svg id="ww-set2-cart-outline" width="100%" height="100%" viewBox="0 0 32 32" xmlns="http://www.w3.org/2000/svg" fill="rgb(61, 61, 61)"><path d="M11 28C12.1046 28 13 27.1046 13 26C13 24.8954 12.1046 24 11 24C9.89543 24 9 24.8954 9 26C9 27.1046 9.89543 28 11 28Z"></path><path d="M25 28C26.1046 28 27 27.1046 27 26C27 24.8954 26.1046 24 25 24C23.8954 24 23 24.8954 23 26C23 27.1046 23.8954 28 25 28Z"></path><path d="M26 23H10C9.5 23 9.1 22.7 9 22.2L6.2 6H3C2.4 6 2 5.6 2 5C2 4.4 2.4 4 3 4H7C7.5 4 7.9 4.3 8 4.8L10.8 21H26C26.6 21 27 21.4 27 22C27 22.6 26.6 23 26 23Z"></path><path d="M25.6 19H10C9.4 19 9 18.6 9 18C9 17.4 9.4 17 10 17H25.2L26.8 9H8C7.4 9 7 8.6 7 8C7 7.4 7.4 7 8 7H27.4C27.6 7 27.8 7.1 28 7.1C28.2 7.2 28.4 7.3 28.5 7.5C28.6 7.7 28.7 7.9 28.8 8.1C28.9 8.3 28.9 8.6 28.8 8.8L27 17.8C26.9 18.1 26.7 18.5 26.5 18.7C26.3 18.9 25.9 19 25.6 19Z"></path></svg>